<?xml version="1.0" encoding="utf-8"?>
<!-- Generator: Adobe Illustrator 25.2.0, SVG Export Plug-In . SVG Version: 6.00 Build 0)  -->
<svg version="1.1" id="Layer_1_1_" xmlns="http://www.w3.org/2000/svg" xmlns:xlink="http://www.w3.org/1999/xlink" x="0px" y="0px"
	 viewBox="0 0 64 64" style="enable-background:new 0 0 64 64;" xml:space="preserve">
<style type="text/css">
	.st0{fill:#FFFFFF;}
</style>
<g id="Guide">
</g>
<path class="st0" d="M58.9,38.2L58.1,38c-0.5-0.1-1-0.4-1.4-0.8l-2-2c-0.9-0.9-2.1-1.4-3.4-1.4H50v-8h2.9c0.3,0,0.5-0.1,0.7-0.3
	l4.9-5c0.2-0.2,0.3-0.4,0.3-0.7V1c0-0.4-0.2-0.8-0.6-0.9c-0.4-0.2-0.8-0.1-1.1,0.2L50.5,7h-3.1l-6.6-6.7c-0.3-0.3-0.7-0.4-1.1-0.2
	c-0.4,0.2-0.6,0.5-0.6,0.9v17.9H23.5c-2.4,0-4.6,0.7-6.5,2H8.8c-1.3,0-2.4-1.1-2.4-2.5c0-1.4,1.1-2.5,2.4-2.5h7.8
	c4.3,0,7.8-3.6,7.8-8S21,0,16.7,0H2.9C1.3,0,0,1.3,0,3s1.3,3,2.9,3h13.7c1.1,0,2,0.9,2,2s-0.9,2-2,2H8.8C4.2,9.9,0,13.7,0,18.4v0.2
	c0,2.5,1.6,4.7,3.3,6.2H1c-0.5,0-1,0.4-1,1v8.9v6c0,0.4,0.3,0.8,0.7,1l11,3.2v14.7c0,2.2,1.8,4,3.9,4s3.9-1.8,3.9-4v-9.5l2.4-2.4
	h2.5v11.9c0,0.5,0.4,1,1,1h4.9c0.4,0,0.7-0.2,0.9-0.5l6.1-12.4h5.8v12.4c0,1.9,1.5,3.5,3.4,3.5c1.9,0,3.4-1.6,3.4-3.5V47.7h8
	c2.6,0,4.7-2.2,4.7-4.8C62.7,40.6,61.1,38.6,58.9,38.2z M41.1,3.4l5.2,5.3c0.2,0.2,0.4,0.3,0.7,0.3h3.9c0.3,0,0.5-0.1,0.7-0.3
	l5.2-5.3v16.1l-4.3,4.4h-7l-4.3-4.4V3.4z M2,18.6v-0.2c0-3.6,3.3-6.5,6.9-6.5h7.8c2.2,0,3.9-1.8,3.9-4s-1.8-4-3.9-4H2.9
	C2.4,4,2,3.5,2,3s0.4-1,1-1h13.7c3.2,0,5.9,2.7,5.9,6s-2.6,6-5.9,6H8.8c-2.4,0-4.4,2-4.4,4.5s2,4.5,4.4,4.5h6c-0.5,0.6-1,1.3-1.4,2
	H8.6C5.2,24.8,2,22,2,18.6z M2,29.5l3.7,4.3H2V29.5z M8.3,33.8l-6-7h3.2l6,7H8.3z M8.6,26.8h3.8c-0.4,1.2-0.7,2.6-0.7,4v0.3L8,26.8
	C8.2,26.8,8.4,26.8,8.6,26.8z M2,40v-4.2h9.8v7.1L2,40z M29.8,58.6h-3.3V46.7v-4h11.2l-1.7,3.5L29.8,58.6z M38.3,45.7l1.7-3.5
	c0.2-0.3,0.1-0.7,0-1c-0.2-0.3-0.5-0.5-0.8-0.5H25.5c-0.5,0-1,0.4-1,1v4h-2v-7c0-1.6,1.3-3,2.9-3h14.7c1.6,0,2.9,1.3,2.9,3v7H38.3z
	 M48,60.1c0,0.8-0.7,1.5-1.5,1.5s-1.5-0.7-1.5-1.5V46.7v-8c0-2.7-2.2-5-4.9-5H25.5c-2.7,0-4.9,2.2-4.9,5v7.5L17.9,49
	c-0.2,0.2-0.3,0.4-0.3,0.7v9.9c0,1.1-0.9,2-2,2c-1.1,0-2-0.9-2-2V44.2v-9.4v-4c0-5.5,4.4-9.9,9.8-9.9h16.2l4.6,4.7
	c0.2,0.2,0.4,0.3,0.7,0.3H48v8.9v3v2v7V60.1z M57.9,45.7h-8v-6v-2v-2h1.4c0.7,0,1.4,0.3,2,0.8l2,2c0.7,0.7,1.5,1.1,2.4,1.3l0.7,0.2
	c1.3,0.3,2.2,1.4,2.2,2.8C60.7,44.4,59.5,45.7,57.9,45.7z"/>
<rect x="40.2" y="37.8" class="st0" width="2" height="2"/>
<rect x="36.2" y="37.8" class="st0" width="2" height="2"/>
<rect x="32.3" y="37.8" class="st0" width="2" height="2"/>
<rect x="28.4" y="37.8" class="st0" width="2" height="2"/>
<rect x="24.5" y="37.8" class="st0" width="2" height="2"/>
<path class="st0" d="M48,12.9h-2c0,0.5-0.4,1-1,1c-0.5,0-1-0.4-1-1h-2c0,1.6,1.3,3,2.9,3C46.7,15.9,48,14.6,48,12.9z"/>
<path class="st0" d="M52.9,15.9c1.6,0,2.9-1.3,2.9-3h-2c0,0.5-0.4,1-1,1c-0.5,0-1-0.4-1-1h-2C50,14.6,51.3,15.9,52.9,15.9z"/>
<rect x="48" y="17.9" class="st0" width="2" height="2"/>
</svg>
